# xmcd CD database file
#
# Track frame offsets:
#	150
#	7865
#	24373
#	41158
#
# Disc length: 921 seconds
#
# Revision: 0
# Processed by: cddbd v1.5.1PL0 Copyright (c) Steve Scherf et al.
# Submitted via: CDex 1.51
#
DISCID=21039704
DTITLE=FOE/MO'SOME TONE BENDER - split maxi
DYEAR=2000
DGENRE=Rock
TTITLE0=壊れているよ
TTITLE1=ジュピター
TTITLE2=PEANUTS
TTITLE3=アンブレラ
EXTD=YEAR: 2000.06/23
EXTT0=
EXTT1=
EXTT2=
EXTT3=
PLAYORDER=
